<svg width="28" height="28" viewBox="0 0 28 28" fill="none" xmlns="http://www.w3.org/2000/svg">
<path d="M14.3792 13.9738C14.4273 13.9563 14.4783 13.9431 14.5294 13.9285C14.4083 13.6588 14.2742 13.3787 14.1225 13.0769C11.3808 13.8892 8.75583 13.8965 8.28771 13.8892C8.28333 13.9256 8.28333 13.9635 8.28333 14C8.28333 15.3781 8.77917 16.7023 9.68042 17.7421C9.98083 17.2579 11.5733 14.8823 14.3792 13.9738ZM10.5335 18.5398C11.5383 19.3098 12.7385 19.7167 14 19.7167C14.754 19.7167 15.486 19.5708 16.1788 19.2865C16.0825 18.7308 15.7485 17.0392 14.98 15.0252C11.8869 16.119 10.7187 18.1781 10.5335 18.5398ZM17.726 9.66437C16.6892 8.77333 15.3679 8.28333 14 8.28333C13.5858 8.28333 13.1702 8.32854 12.7604 8.42042C13.0594 8.82146 13.9737 10.0917 14.8327 11.6623C16.7037 10.9433 17.5496 9.90646 17.726 9.66437ZM13.5698 12.0517C12.6831 10.4883 11.76 9.20062 11.5062 8.85646C9.95021 9.61042 8.80542 11.0527 8.42479 12.7327H8.44958C9.04167 12.7327 11.146 12.6846 13.5698 12.0517ZM16.2079 14.7233C16.886 16.609 17.1981 18.1752 17.2871 18.6769C18.5296 17.8019 19.3783 16.4587 19.6335 14.9683C19.3798 14.891 18.464 14.646 17.3119 14.646C16.9356 14.646 16.5637 14.6723 16.2079 14.7233ZM14 0C6.26792 0 0 6.26792 0 14C0 21.7321 6.26792 28 14 28C21.7321 28 28 21.7321 28 14C28 6.26792 21.7321 0 14 0ZM14 20.8498C10.22 20.8498 7.14729 17.7771 7.14729 14C7.14729 10.22 10.22 7.14729 14 7.14729C17.7785 7.14729 20.8512 10.2215 20.8512 14C20.8512 17.7771 17.7785 20.8498 14 20.8498ZM15.3446 12.6496C15.4715 12.9121 15.5896 13.1702 15.6975 13.424C15.731 13.5071 15.7675 13.5887 15.801 13.6719C16.205 13.6237 16.6367 13.6004 17.0873 13.6004C18.3327 13.6004 19.3667 13.7827 19.7137 13.8512C19.6817 12.6117 19.2427 11.4071 18.4712 10.4387C18.2379 10.7392 17.2783 11.8431 15.3446 12.6496Z" fill="#454545"/>
</svg>
