<svg width="29" height="28" viewBox="0 0 29 28" fill="none" xmlns="http://www.w3.org/2000/svg">
<path d="M14.56 0C6.82791 0 0.559998 6.26792 0.559998 14C0.559998 21.7321 6.82791 28 14.56 28C22.2921 28 28.56 21.7321 28.56 14C28.56 6.26792 22.2921 0 14.56 0ZM11.1329 19.8027H8.29791V10.6794H11.1329V19.8027ZM9.69791 9.55937C8.8025 9.55937 8.22354 8.925 8.22354 8.14042C8.22354 7.33979 8.82 6.72437 9.73437 6.72437C10.6487 6.72437 11.2087 7.33979 11.2262 8.14042C11.2262 8.925 10.6487 9.55937 9.69791 9.55937ZM21.4871 19.8027H18.6521V14.7467C18.6521 13.5698 18.2408 12.7706 17.2156 12.7706C16.4325 12.7706 15.9673 13.3117 15.7617 13.8323C15.6858 14.0175 15.6669 14.28 15.6669 14.541V19.8012H12.8304V13.5888C12.8304 12.4498 12.794 11.4975 12.756 10.6779H15.2192L15.349 11.9452H15.4058C15.7792 11.3502 16.6935 10.4723 18.2233 10.4723C20.0885 10.4723 21.4871 11.7221 21.4871 14.4083V19.8027Z" fill="#454545"/>
</svg>
