<svg width="28" height="28" viewBox="0 0 28 28" fill="none" xmlns="http://www.w3.org/2000/svg">
<path d="M14 0C6.26798 0 0 6.26807 0 14.0001C0 21.7321 6.26798 28.0001 14 28.0001C21.732 28.0001 28 21.7321 28 14.0001C28 6.26807 21.732 0 14 0ZM8.504 9.62508H19.4701C20.0517 9.62508 19.7523 10.3713 19.4358 10.5629C19.1193 10.7537 14.7381 13.4023 14.5747 13.5006C14.4114 13.5988 14.2 13.6458 13.9874 13.6458C13.7746 13.6458 13.5632 13.5988 13.4 13.5006C13.2367 13.4023 8.85532 10.7537 8.5388 10.5629C8.22237 10.3713 7.92294 9.62508 8.504 9.62508ZM19.8333 17.6459C19.8333 17.9521 19.4663 18.3751 19.1852 18.3751H8.81482C8.53373 18.3751 8.16665 17.9521 8.16665 17.6459C8.16665 17.6459 8.16665 12.4624 8.16665 12.3278C8.16665 12.1939 8.16416 12.0194 8.4173 12.1683C8.77681 12.379 13.1797 14.9756 13.4 15.1052C13.6202 15.2348 13.7746 15.2504 13.9874 15.2504C14.2 15.2504 14.3544 15.2348 14.5747 15.1052C14.795 14.9756 19.2232 12.3798 19.5827 12.169C19.8358 12.0202 19.8333 12.1946 19.8333 12.3285C19.8333 12.4631 19.8333 17.6459 19.8333 17.6459Z" fill="#454545"/>
</svg>
