<svg width="28" height="28" viewBox="0 0 28 28" fill="none" xmlns="http://www.w3.org/2000/svg">
<path d="M14 0C6.26798 0 0 6.26807 0 14.0001C0 21.7321 6.26798 28.0001 14 28.0001C21.732 28.0001 28 21.7321 28 14.0001C28 6.26807 21.732 0 14 0ZM20.125 10.5973H19.955C19.955 10.5973 19.4445 10.5973 19.4445 11.1079C19.4445 11.6184 19.4445 16.8926 19.4445 16.8926C19.4445 16.8926 19.4445 17.4028 19.955 17.4028H20.125V18.7639H16.0417V17.4028H16.7222V11.0737H16.6542L14.5686 18.7639H12.7319L10.6652 11.0737H10.5972V17.4028H11.2778V18.7639H7.87497V17.4028H8.04498C8.04498 17.4028 8.55554 17.4028 8.55554 16.8923C8.55554 16.3818 8.55554 11.1074 8.55554 11.1074C8.55554 11.1074 8.55554 10.5973 8.04498 10.5973H7.87497V9.23628H12.3898L13.9734 15.1292H14.0255L15.6238 9.23628H20.125V10.5973V10.5973Z" fill="#454545"/>
</svg>
